# xmcd CD database file
#
# Track frame offsets:
#	200
#	14870
#	30962
#	47997
#	61360
#	75862
#	94980
#	107182
#	127980
#	144130
#	159092
#	173550
#	198167
#
# Disc length: 2831 seconds
#
# Revision: 2
# Processed by: cddbd v1.5.2PL0 Copyright (c) Steve Scherf et al.
# Submitted via: CDex 1.51
#
DISCID=990b0d0d
DTITLE=Carey Bell and Tough Luck - Mellow Down Easy
DYEAR=1991
DGENRE=Blues
TTITLE0=Short Dress Woman
TTITLE1=Delta Time
TTITLE2=Five Long Years
TTITLE3=Mellow Down Easy
TTITLE4=For The Love Of A Woman
TTITLE5=Just Like You
TTITLE6=Walkin' Thru The Park
TTITLE7=St. Louis Blues
TTITLE8=That Spot Right There
TTITLE9=Big Walter Strut
TTITLE10=One Day
TTITLE11=So Easy To Love You
TTITLE12=Walkin' By Myself
EXTD=YEAR: 1991
EXTT0=
EXTT1=
EXTT2=
EXTT3=
EXTT4=
EXTT5=
EXTT6=
EXTT7=
EXTT8=
EXTT9=
EXTT10=
EXTT11=
EXTT12=
PLAYORDER=
